<?xml version="1.0" encoding="UTF-8"?>
<svg id="Layer_1" data-name="Layer 1" xmlns="http://www.w3.org/2000/svg" viewBox="0 0 2907 2907">
  <defs>
    <style>
      .cls-1 {
        fill: #fbe9a2;
      }

      .cls-1, .cls-2, .cls-3, .cls-4, .cls-5, .cls-6 {
        stroke-width: 0px;
      }

      .cls-2 {
        fill: #edeceb;
      }

      .cls-3 {
        fill: #fff;
      }

      .cls-4 {
        fill: #191818;
      }

      .cls-5 {
        fill: #fbe58f;
      }

      .cls-6 {
        fill: #1c1b1b;
      }
    </style>
  </defs>
  <path class="cls-3" d="m0,0h2907v2907H0C0,1938,0,969,0,0Zm1298.95,1026.99c-31.6,13.57-63.68,26.13-94.62,41.07-18.56,8.96-35.98,20.75-52.64,33-9.62,7.07-17.86,16.81-24.59,26.79-6.61,9.81-3.49,18.82,6.49,25.41,4.27,2.82,9.11,5.44,14.05,6.46,15.63,3.23,31.4,7.76,47.17,7.95,33.45.42,67.12.29,100.35-3.07,41.61-4.21,82.86-11.99,124.32-17.93,3.86-.55,8.04,1.08,12.07,1.7-7.89,40.29-16.94,80.39-23.39,120.91-8.98,56.39-19.49,112.87-23.08,169.7-5.8,91.85-7.04,184-8.99,276.06-.57,26.78,2.78,53.67,4.77,80.48.99,13.37,2.98,26.67,4.51,39.99-1.66-1.67-2.09-3.52-1.8-5.25,2.09-12.46,4.87-24.82,6.39-37.34,2.05-16.87,2.35-33.97,4.83-50.75,10.49-70.99,21.48-141.9,32.46-212.81.55-3.52,1.89-7.67,4.32-10.03,24.03-23.33,48.36-46.36,72.68-69.4,1.48-1.4,3.63-2.09,5.4-3.07,5.71,19.57,10.36,38.28,16.66,56.41,9.12,26.25,23.97,49.3,44.26,68.33,22.27,20.88,49.68,24.49,75.7,10,22.54-12.56,41.71-29.42,56.57-50.58,4.17-5.94,7.37-13.52,8.17-20.67,2.21-19.74-16.31-35.42-34.68-29.1-7.05,2.43-12.94,8.87-18.73,14.17-11.43,10.47-21.93,22.01-33.77,31.98-7.8,6.57-11.8,6.12-17.68-2.37-7.17-10.35-13.69-21.55-18.19-33.27-13.72-35.73-16.22-73.58-18.09-111.3-3.3-66.57-2.01-133.11,3.58-199.55,1.94-23.05,4.17-46.07,6.26-69.1,3.1-1.05,6.17-2.21,9.31-3.14,39.8-11.7,79.83-22.66,119.36-35.2,52.66-16.7,104.42-35.99,154.25-60.01,29.83-14.38,58.86-30.19,81.79-54.98,20.1-21.73,15.18-41.73-13.14-49.77-12.14-3.45-24.97-5.35-37.59-6.1-38.77-2.29-77.35,1.68-115.76,6.23-28.02,3.32-55.88,8.2-83.68,13.09-17.47,3.07-34.71,7.45-52.05,11.24-1.11.31-2.21.61-.49.14-1.47,1-.54.37.38-.26,7.5-.58,15.03-.9,22.49-1.79,26.61-3.18,53.17-6.77,79.79-9.8,17.75-2.02,35.54-3.95,53.37-4.88,26.83-1.4,53.71-1.43,80.04,5.14,8.1,2.02,17.36,3.68,19.8,13.51,2.66,10.7-4.79,17.52-11.32,24.36-.96,1-2.32,1.61-3.41,2.5-26.24,21.38-56.67,35.39-87.28,48.85-54.38,23.91-110.64,42.74-167.51,59.72-14.4,4.3-29.15,7.46-43.74,11.14,3.61-29.53,7.49-59.04,10.75-88.61,3.42-30.96,6.94-61.95,8.97-93.01.69-10.52-1.51-21.88-5.08-31.89-9.6-26.99-39.17-34.91-60.78-16.14-8.34,7.25-15.47,16.82-20.57,26.67-9.52,18.41-18.01,37.46-25.39,56.83-22.22,58.34-38.06,118.63-52.79,179.21-2.62.94-5.16,2.33-7.86,2.75-31.58,4.94-63.22,9.51-94.78,14.61-40.26,6.52-80.77,6.83-121.31,5.06-10.19-.44-20.58-2.8-30.3-6.02-16.03-5.32-18.88-16.5-8.17-29.33,3.89-4.66,8.31-9.23,13.35-12.54,13.36-8.8,26.74-17.76,40.92-25.08,22.18-11.44,45.02-21.57,67.58-32.26,33.31-11.61,66.63-23.22,99.92-34.89,1.27-.45,2.33-1.53,3.42-2.41.29-.23.39-.79.42-1.21.03-.44-.13-.89-.39-2.4-3.98,1.01-7.98,1.77-11.82,3.04-21.01,6.95-42.04,13.82-62.92,21.14-9.69,3.4-19.04,7.76-28.55,11.68Z"/>
  <path class="cls-6" d="m1579.71,1111.81c-2.1,23.03-4.32,46.06-6.26,69.1-5.59,66.43-6.88,132.98-3.58,199.55,1.87,37.71,4.36,75.57,18.09,111.3,4.5,11.72,11.02,22.92,18.19,33.27,5.88,8.49,9.88,8.94,17.68,2.37,11.83-9.97,22.33-21.51,33.77-31.98,5.79-5.3,11.68-11.75,18.73-14.17,18.37-6.32,36.89,9.36,34.68,29.1-.8,7.15-4.01,14.73-8.17,20.67-14.86,21.16-34.03,38.02-56.57,50.58-26.02,14.49-53.42,10.89-75.7-10-20.29-19.03-35.14-42.07-44.26-68.33-6.3-18.13-10.94-36.84-16.66-56.41-1.77.98-3.92,1.67-5.4,3.07-24.32,23.03-48.64,46.07-72.68,69.4-2.43,2.36-3.77,6.51-4.32,10.03-10.98,70.91-21.97,141.82-32.46,212.81-2.48,16.79-2.78,33.89-4.83,50.75-1.52,12.52-4.3,24.89-6.39,37.34-.29,1.73.14,3.59,1.8,5.25-1.54-13.33-3.52-26.62-4.51-39.99-1.99-26.81-5.33-53.7-4.77-80.48,1.95-92.05,3.19-184.21,8.99-276.06,3.59-56.84,14.1-113.31,23.08-169.7,6.45-40.52,15.5-80.62,23.39-120.89,1.84-5.67,6.99-5.33,11.46-6.3,29.21-6.34,58.43-12.66,87.63-19.1,16.39-3.61,32.72-7.45,49.08-11.18Zm-87.99,35.71c-22.25,93.86-37.83,188.95-47.43,285.2,16.3-15.81,30.79-32.51,46.54-47.93,8.29-8.12,11-16.23,9.56-27.54-3.45-27.13-7.43-54.35-8.31-81.62-1.37-42.59-.36-85.26-.36-128.11Z"/>
  <path class="cls-5" d="m1579.71,1111.81c-16.36,3.73-32.7,7.57-49.08,11.18-29.19,6.44-58.41,12.76-87.63,19.1-4.47.97-9.61.63-11.46,6.3-4.03-.64-8.21-2.27-12.07-1.72-41.45,5.93-82.7,13.71-124.32,17.93-33.23,3.36-66.9,3.49-100.35,3.07-15.76-.2-31.54-4.73-47.17-7.95-4.93-1.02-9.78-3.64-14.05-6.46-9.98-6.58-13.11-15.6-6.49-25.41,6.73-9.98,14.97-19.72,24.59-26.79,16.66-12.25,34.08-24.03,52.64-33,30.93-14.94,63.02-27.51,94.62-41.08-.03,1.68-.06,3.37-.09,5.05-22.56,10.69-45.41,20.82-67.58,32.26-14.19,7.32-27.56,16.27-40.92,25.08-5.03,3.32-9.45,7.88-13.35,12.54-10.71,12.83-7.86,24.01,8.17,29.33,9.72,3.22,20.11,5.58,30.3,6.02,40.54,1.77,81.06,1.45,121.31-5.06,31.55-5.11,63.19-9.68,94.78-14.61,2.7-.42,5.25-1.81,7.86-2.75,2.69.1,5.51.76,8.06.2,33.55-7.32,67.12-14.57,100.56-22.39,12.27-2.87,24.19-7.2,36.27-10.87,14.59-3.68,29.33-6.84,43.74-11.14,56.87-16.98,113.12-35.81,167.51-59.72,30.61-13.46,61.04-27.48,87.28-48.85,1.09-.89,2.45-1.5,3.41-2.5,6.53-6.84,13.98-13.66,11.32-24.36-2.44-9.83-11.7-11.49-19.8-13.51-26.33-6.56-53.21-6.54-80.04-5.14-17.83.93-35.62,2.85-53.37,4.88-26.62,3.03-53.18,6.62-79.79,9.8-7.46.89-14.99,1.21-22.49,1.79l.11.13c17.34-3.79,34.58-8.17,52.05-11.24,27.81-4.89,55.66-9.77,83.68-13.09,38.41-4.55,76.99-8.52,115.76-6.23,12.63.75,25.45,2.65,37.59,6.1,28.32,8.04,33.24,28.04,13.14,49.77-22.93,24.79-51.96,40.6-81.79,54.98-49.83,24.02-101.59,43.31-154.25,60.01-39.53,12.54-79.56,23.51-119.36,35.2-3.14.92-6.21,2.09-9.31,3.14Z"/>
  <path class="cls-4" d="m1584.31,1081.79c-12.08,3.66-24,8-36.27,10.87-33.44,7.82-67.01,15.07-100.56,22.39-2.55.56-5.37-.11-8.06-.2,14.73-60.58,30.57-120.86,52.79-179.21,7.38-19.37,15.87-38.43,25.39-56.83,5.09-9.85,12.23-19.42,20.57-26.67,21.61-18.77,51.18-10.85,60.78,16.14,3.56,10.02,5.76,21.38,5.08,31.89-2.03,31.07-5.55,62.05-8.97,93.01-3.27,29.57-7.14,59.08-10.75,88.61Z"/>
  <path class="cls-1" d="m1298.86,1032.04c.03-1.68.06-3.37.09-5.05,9.51-3.92,18.86-8.28,28.55-11.68,20.88-7.32,41.91-14.19,62.92-21.14,3.84-1.27,7.84-2.03,11.82-3.04.26,1.51.42,1.97.39,2.4-.03.42-.14.98-.42,1.21-1.09.88-2.15,1.96-3.42,2.41-33.29,11.67-66.61,23.28-99.92,34.89Z"/>
  <path class="cls-5" d="m1642.09,933.03c-.92.63-1.85,1.26-.38.26-1.72.48-.62.17.49-.14,0,0-.11-.13-.11-.13Z"/>
  <path class="cls-2" d="m1491.73,1147.52c0,42.85-1.01,85.52.36,128.11.88,27.28,4.86,54.49,8.31,81.62,1.44,11.31-1.28,19.42-9.56,27.54-15.75,15.42-30.24,32.12-46.54,47.93,9.6-96.24,25.18-191.34,47.43-285.2Z"/>
</svg>