<svg xmlns="http://www.w3.org/2000/svg" xml:space="preserve" style="fill-rule:evenodd;clip-rule:evenodd;stroke-linejoin:round;stroke-miterlimit:2" viewBox="0 0 128 128">
  <path d="M1579.71 1111.81c-2.1 23.03-4.32 46.06-6.26 69.1-5.59 66.43-6.88 132.98-3.58 199.55 1.87 37.71 4.36 75.57 18.09 111.3 4.5 11.72 11.02 22.92 18.19 33.27 5.88 8.49 9.88 8.94 17.68 2.37 11.83-9.97 22.33-21.51 33.77-31.98 5.79-5.3 11.68-11.75 18.73-14.17 18.37-6.32 36.89 9.36 34.68 29.1-.8 7.15-4.01 14.73-8.17 20.67-14.86 21.16-34.03 38.02-56.57 50.58-26.02 14.49-53.42 10.89-75.7-10-20.29-19.03-35.14-42.07-44.26-68.33-6.3-18.13-10.94-36.84-16.66-56.41-1.77.98-3.92 1.67-5.4 3.07-24.32 23.03-48.64 46.07-72.68 69.4-2.43 2.36-3.77 6.51-4.32 10.03-10.98 70.91-21.97 141.82-32.46 212.81-2.48 16.79-19.26-.35-18.7-27.13 1.95-92.05 3.19-184.21 8.99-276.06 3.59-56.84 14.1-113.31 23.08-169.7 6.45-40.52 15.5-80.62 23.39-120.89 1.84-5.67 6.99-5.33 11.46-6.3 29.21-6.34 58.43-12.66 87.63-19.1 16.39-3.61 32.72-7.45 49.08-11.18h-.01Zm-87.99 35.71c-22.25 93.86-37.83 188.95-47.43 285.2 16.3-15.81 30.79-32.51 46.54-47.93 8.29-8.12 11-16.23 9.56-27.54-3.45-27.13-7.43-54.35-8.31-81.62-1.37-42.59-.36-85.26-.36-128.11Z" transform="matrix(.1208 0 0 .1208 -123.423 -97.057)"/>
  <path d="M1541.85 882.96c9.4-10.018 25.17-10.515 35.19-1.111 10.02 9.404 10.52 25.173 1.11 35.191-26.05 27.75-52.48 92.67-77.17 175.72-60.05 202.05-81.83 497.21-90.11 687.62-.6 13.73-7.01 26.37-20.58 28.57-13.56 2.21-28.54-6.83-28.57-20.57-.52-322.59 29.55-501.23 91.54-709.8 27.61-92.933 59.44-164.569 88.59-195.62Z" transform="matrix(.1208 0 0 .1208 -123.423 -97.057)"/>
  <path d="M1579.71 1111.81c-16.36 3.73-32.7 7.57-49.08 11.18-29.19 6.44-58.41 12.76-87.63 19.1-4.47.97-9.61.63-11.46 6.3-4.03-.64-8.21-2.27-12.07-1.72-41.45 5.93-82.7 13.71-124.32 17.93-33.23 3.36-66.9 3.49-100.35 3.07-15.76-.2-31.54-4.73-47.17-7.95-4.93-1.02-9.78-3.64-14.05-6.46-9.98-6.58-13.11-15.6-6.49-25.41 6.73-9.98 14.97-19.72 24.59-26.79 16.66-12.25 34.08-24.03 52.64-33 30.93-14.94 63.02-27.51 94.62-41.08l-.09 5.05c-22.56 10.69-45.41 20.82-67.58 32.26-14.19 7.32-27.56 16.27-40.92 25.08-5.03 3.32-9.45 7.88-13.35 12.54-10.71 12.83-7.86 24.01 8.17 29.33 9.72 3.22 20.11 5.58 30.3 6.02 40.54 1.77 81.06 1.45 121.31-5.06 31.55-5.11 63.19-9.68 94.78-14.61 2.7-.42 5.25-1.81 7.86-2.75 2.69.1 5.51.76 8.06.2 33.55-7.32 67.12-14.57 100.56-22.39 12.27-2.87 24.19-7.2 36.27-10.87 14.59-3.68 29.33-6.84 43.74-11.14 56.87-16.98 113.12-35.81 167.51-59.72 30.61-13.46 61.04-27.48 87.28-48.85 1.09-.89 2.45-1.5 3.41-2.5 6.53-6.84 13.98-13.66 11.32-24.36-2.44-9.83-11.7-11.49-19.8-13.51-26.33-6.56-53.21-6.54-80.04-5.14-17.83.93-35.62 2.85-53.37 4.88-26.62 3.03-53.18 6.62-79.79 9.8-7.46.89-14.99 1.21-22.49 1.79l.11.13c17.34-3.79 34.58-8.17 52.05-11.24 27.81-4.89 55.66-9.77 83.68-13.09 38.41-4.55 76.99-8.52 115.76-6.23 12.63.75 25.45 2.65 37.59 6.1 28.32 8.04 33.24 28.04 13.14 49.77-22.93 24.79-51.96 40.6-81.79 54.98-49.83 24.02-101.59 43.31-154.25 60.01-39.53 12.54-79.56 23.51-119.36 35.2-3.14.92-6.21 2.09-9.31 3.14l.01.01Z" style="fill:#fbe58f;fill-rule:nonzero" transform="matrix(.1208 0 0 .1208 -123.423 -97.057)"/>
  <path d="M1584.31 1081.79c-12.08 3.66-24 8-36.27 10.87-33.44 7.82-67.01 15.07-100.56 22.39-2.55.56-5.37-.11-8.06-.2 14.73-60.58 30.57-120.86 52.79-179.21 7.38-19.37 15.87-38.43 25.39-56.83 5.09-9.85 12.23-19.42 20.57-26.67 21.61-18.77 51.18-10.85 60.78 16.14 3.56 10.02 5.76 21.38 5.08 31.89-2.03 31.07-5.55 62.05-8.97 93.01-3.27 29.57-7.14 59.08-10.75 88.61Z" transform="matrix(.1208 0 0 .1208 -123.423 -97.057)"/>
  <path d="m1298.86 1032.04.09-5.05c9.51-3.92 18.86-8.28 28.55-11.68 20.88-7.32 41.91-14.19 62.92-21.14 3.84-1.27 7.84-2.03 11.82-3.04.26 1.51.42 1.97.39 2.4-.03.42-.14.98-.42 1.21-1.09.88-2.15 1.96-3.42 2.41-33.29 11.67-66.61 23.28-99.92 34.89h-.01Z" style="fill:#fbe9a2;fill-rule:nonzero" transform="matrix(.1208 0 0 .1208 -123.423 -97.057)"/>
  <style>
    path{fill:#000}@media (prefers-color-scheme:dark){path{fill:#fff}}
  </style>
</svg>